<?xml version="1.0" encoding="UTF-8"?>
<svg id="Layer_1" data-name="Layer 1" xmlns="http://www.w3.org/2000/svg" xmlns:xlink="http://www.w3.org/1999/xlink" viewBox="0 0 1516.24 609.88">
  <defs>
    <style>
      .cls-1 {
        fill: url(#linear-gradient-2);
      }

      .cls-2 {
        fill: url(#linear-gradient-4);
      }

      .cls-3 {
        fill: url(#linear-gradient-3);
      }

      .cls-4 {
        fill: url(#linear-gradient-5);
      }

      .cls-5 {
        fill: url(#linear-gradient-8);
      }

      .cls-6 {
        fill: url(#linear-gradient-7);
      }

      .cls-7 {
        fill: url(#linear-gradient-9);
      }

      .cls-8 {
        fill: url(#linear-gradient-6);
      }

      .cls-9 {
        fill: url(#linear-gradient);
        fill-rule: evenodd;
      }
    </style>
    <linearGradient id="linear-gradient" x1="230.28" y1="404.47" x2="230.28" y2="248.82" gradientUnits="userSpaceOnUse">
      <stop offset="0" stop-color="#9b51e0"/>
      <stop offset="1" stop-color="#138ee3"/>
    </linearGradient>
    <linearGradient id="linear-gradient-2" x1="450.61" y1="404.47" x2="450.61" y2="248.82" xlink:href="#linear-gradient"/>
    <linearGradient id="linear-gradient-3" x1="579.2" y1="404.47" x2="579.2" y2="248.82" xlink:href="#linear-gradient"/>
    <linearGradient id="linear-gradient-4" x1="712.42" y1="404.47" x2="712.42" y2="248.82" xlink:href="#linear-gradient"/>
    <linearGradient id="linear-gradient-5" x1="832.63" y1="404.47" x2="832.63" y2="248.82" xlink:href="#linear-gradient"/>
    <linearGradient id="linear-gradient-6" x1="975.09" y1="404.47" x2="975.09" y2="248.82" xlink:href="#linear-gradient"/>
    <linearGradient id="linear-gradient-7" x1="1118.79" y1="404.47" x2="1118.79" y2="248.82" xlink:href="#linear-gradient"/>
    <linearGradient id="linear-gradient-8" x1="1204.55" y1="404.47" x2="1204.55" y2="248.82" xlink:href="#linear-gradient"/>
    <linearGradient id="linear-gradient-9" x1="1301.35" y1="404.47" x2="1301.35" y2="248.82" xlink:href="#linear-gradient"/>
  </defs>
  <path class="cls-9" d="M198.83,239.3c5.83-5.24,12.33-9.62,19.51-13.06,9.46-4.54,19.63-6.8,30.51-6.8,7.77,0,14.9.65,21.38,1.95,6.48,1.29,12.5,3.11,18.07,5.44,5.58,2.33,10.95,5.18,16.13,8.55,5.18,3.37,10.36,7.26,15.55,11.66l37.7-45.47c-7-5.96-14.25-11.27-21.77-15.93-7.51-4.66-15.55-8.55-24.1-11.66-8.55-3.11-17.81-5.51-27.79-7.19-9.97-1.68-21.05-2.53-33.23-2.53-20.73,0-39.77,3.69-57.13,11.07-17.36,7.38-32.39,17.49-45.08,30.31-12.7,12.82-22.61,27.72-29.73,44.69-1.41,3.35-2.67,6.75-3.8,10.2l10.78-6.22,29.84,17.23,1.5-.87v-20.33l30.41-17.56,11.26,6.5ZM186.99,363.48l-21.31-12.3v-21.37l-10.02-5.79-27.04,15.61v10.7l17.6,10.16v20.33l11.5,6.64,29.84-17.23,32.65,18.85v37.69l-32.65,18.85-32.65-18.85v-34.46l-11.5-6.64-17.6,10.16-20.4-11.78v-23.56l17.6-10.16v-10.7l-29.85-17.23v-37.69l32.65-18.85,29.84,17.23,11.5-6.64v-20.33l20.4-11.78,20.4,11.78v23.56l-20.4,11.78-17.6-10.16-11.5,6.64v31.23l10.02,5.78,18.51-10.68,19.48,11.25,7.51-4.33v-13.27l13.32-7.69,13.32,7.69v15.38l-13.32,7.69-11.49-6.63-7.51,4.33v22.49l-21.31,12.3ZM214.36,441.71c11.57,2.61,23.84,3.91,36.82,3.91,24.87,0,46.96-4.21,66.26-12.63,19.3-8.42,35.95-18.59,49.94-30.51v-118.14h-118.14v51.69h60.24v39.12c-15.29,10.95-34.07,16.45-56.35,16.45-8.12,0-15.75-.95-22.89-2.85v43.8l-15.86,9.16Z"/>
  <g>
    <path class="cls-1" d="M473.72,386.08l-28.31-42.27h-22.83v42.27h-29.06v-132.09h60.39c31.14,0,49.82,16.42,49.82,43.59v.38c0,21.32-11.51,34.72-28.31,40.95l32.27,47.18h-33.97ZM474.29,299.09c0-12.46-8.68-18.87-22.83-18.87h-28.87v37.93h29.44c14.15,0,22.27-7.55,22.27-18.68v-.38Z"/>
    <path class="cls-3" d="M618.83,386.08l-12.08-29.63h-55.86l-12.08,29.63h-29.63l56.61-133.04h26.8l56.61,133.04h-30.38ZM578.83,287.95l-17.55,42.84h35.1l-17.55-42.84Z"/>
    <path class="cls-2" d="M711.29,346.45h-22.08v39.63h-29.06v-132.09h53.97c31.51,0,50.57,18.68,50.57,45.67v.38c0,30.57-23.78,46.42-53.4,46.42ZM735.26,300.22c0-13.02-9.06-20-23.59-20h-22.46v40.38h23.02c14.53,0,23.02-8.68,23.02-20v-.38Z"/>
    <path class="cls-4" d="M859.42,386.08v-53.03h-53.59v53.03h-29.06v-132.09h29.06v52.27h53.59v-52.27h29.06v132.09h-29.06Z"/>
    <path class="cls-8" d="M974.91,388.35c-40.76,0-70.01-30.38-70.01-67.93v-.38c0-37.55,29.63-68.31,70.39-68.31s70.01,30.38,70.01,67.93v.38c0,37.55-29.63,68.31-70.39,68.31ZM1014.91,320.03c0-22.64-16.61-41.52-40.01-41.52s-39.63,18.49-39.63,41.14v.38c0,22.64,16.61,41.52,40.01,41.52s39.63-18.49,39.63-41.14v-.38Z"/>
    <path class="cls-6" d="M1141.9,386.08l-28.31-42.27h-22.83v42.27h-29.06v-132.09h60.39c31.14,0,49.82,16.42,49.82,43.59v.38c0,21.32-11.51,34.72-28.31,40.95l32.27,47.18h-33.97ZM1142.47,299.09c0-12.46-8.68-18.87-22.83-18.87h-28.87v37.93h29.44c14.15,0,22.27-7.55,22.27-18.68v-.38Z"/>
    <path class="cls-5" d="M1190.02,386.08v-132.09h29.06v132.09h-29.06Z"/>
    <path class="cls-7" d="M1340.98,386.08l-12.08-29.63h-55.86l-12.08,29.63h-29.63l56.61-133.04h26.8l56.61,133.04h-30.38ZM1300.98,287.95l-17.55,42.84h35.1l-17.55-42.84Z"/>
  </g>
</svg>