<?xml version="1.0" encoding="UTF-8"?>
<svg id="Layer_1" data-name="Layer 1" xmlns="http://www.w3.org/2000/svg" xmlns:xlink="http://www.w3.org/1999/xlink" viewBox="0 0 1024 1024">
  <defs>
    <style>
      .cls-1 {
        fill: #fff;
        fill-rule: evenodd;
      }

      .cls-2 {
        fill: url(#radial-gradient);
        filter: url(#drop-shadow-5);
      }
    </style>
    <radialGradient id="radial-gradient" cx="736.08" cy="230.2" fx="736.08" fy="230.2" r="814.1" gradientUnits="userSpaceOnUse">
      <stop offset="0" stop-color="#138ee3"/>
      <stop offset="1" stop-color="#9b51e0"/>
    </radialGradient>
    <filter id="drop-shadow-5" x="-161.21" y="-143.74" width="1383" height="1383" filterUnits="userSpaceOnUse">
      <feOffset dx="17.9" dy="35.31"/>
      <feGaussianBlur result="blur" stdDeviation="59.68"/>
      <feFlood flood-color="#000" flood-opacity=".2"/>
      <feComposite in2="blur" operator="in"/>
      <feComposite in="SourceGraphic"/>
    </filter>
  </defs>
  <rect class="cls-2" y="0" width="1024" height="1024" rx="275.86" ry="275.86"/>
  <path class="cls-1" d="M441.58,365.01c13.05-11.74,27.62-21.53,43.68-29.23,21.17-10.16,43.95-15.23,68.31-15.23,17.41,0,33.36,1.45,47.86,4.36,14.5,2.9,27.99,6.96,40.46,12.18,12.48,5.23,24.52,11.6,36.12,19.15,11.6,7.54,23.21,16.25,34.81,26.11l84.41-101.82c-15.68-13.34-31.91-25.23-48.74-35.68-16.82-10.44-34.81-19.14-53.96-26.1-19.14-6.97-39.88-12.33-62.22-16.1-22.33-3.77-47.13-5.66-74.4-5.66-46.41,0-89.05,8.26-127.92,24.8-38.87,16.53-72.52,39.16-100.95,67.88-28.43,28.72-50.62,62.08-66.57,100.08-3.15,7.51-5.99,15.13-8.52,22.85l24.14-13.94,66.83,38.58,3.36-1.94v-45.51l68.09-39.31,25.21,14.55ZM415.08,643.08l-47.71-27.54v-47.84l-22.43-12.96-60.56,34.96v23.95l39.42,22.76v45.52l25.76,14.86,66.83-38.58,73.1,42.21v84.41l-73.1,42.21-73.1-42.21v-77.16l-25.76-14.87-39.42,22.75-45.69-26.37v-52.76l39.41-22.76v-23.95l-66.83-38.58v-84.41l73.1-42.2,66.83,38.58,25.76-14.87v-45.51l45.69-26.38,45.69,26.38v52.75l-45.69,26.38-39.41-22.76-25.76,14.87v69.92l22.44,12.95,41.44-23.92,43.61,25.18,16.81-9.71v-29.7l29.82-17.22,29.82,17.22v34.43l-29.82,17.22-25.73-14.85-16.81,9.7v50.36l-47.71,27.54ZM476.36,818.26c25.91,5.84,53.39,8.76,82.44,8.76,55.69,0,105.15-9.43,148.37-28.28,43.22-18.86,80.5-41.63,111.83-68.32v-264.54h-264.55v115.74h134.89v87.61c-34.24,24.51-76.29,36.84-126.19,36.84-18.18,0-35.27-2.13-51.27-6.39v98.08l-35.52,20.51Z"/>
</svg>